<svg id="svg" xmlns="http://www.w3.org/2000/svg" xmlns:xlink="http://www.w3.org/1999/xlink" width="400" height="363.50877192982455" viewBox="0, 0, 400,363.50877192982455"><g id="svgg"><path id="path0" d="M197.165 2.334 C 195.947 3.552,194.586 6.367,194.142 8.590 C 193.455 12.025,192.664 12.632,188.877 12.632 C 180.877 12.632,177.830 19.151,185.475 19.911 C 190.860 20.447,194.445 24.886,197.799 35.174 L 200.233 42.642 201.820 36.341 C 204.254 26.673,209.042 20.436,214.431 19.911 C 222.269 19.148,219.151 12.632,210.947 12.632 C 207.833 12.632,206.316 11.964,206.316 10.592 C 206.316 3.707,200.784 -1.285,197.165 2.334 M122.038 27.460 C 117.027 32.824,111.861 35.088,104.631 35.088 L 98.246 35.088 98.246 43.289 C 98.246 61.521,87.422 79.783,68.772 93.016 L 65.263 95.506 70.175 94.654 C 79.691 93.005,92.650 85.830,101.553 77.280 L 110.301 68.880 109.746 73.631 C 109.337 77.134,109.940 79.023,112.040 80.822 L 114.889 83.261 111.581 85.863 C 106.987 89.477,105.041 96.248,106.626 103.110 C 108.223 110.027,106.356 112.850,100.907 111.760 C 98.210 111.221,96.845 111.653,96.235 113.241 C 95.308 115.658,98.835 122.105,101.085 122.105 C 101.839 122.105,102.456 123.647,102.456 125.531 C 102.456 127.415,103.088 129.347,103.860 129.825 C 106.532 131.476,105.411 137.308,102.228 138.318 C 99.653 139.135,99.526 139.468,101.388 140.511 C 105.184 142.635,112.118 140.205,116.502 135.212 L 120.702 130.429 120.702 136.184 C 120.702 144.039,118.354 148.533,115.960 145.259 C 112.856 141.014,106.046 143.018,105.532 148.328 C 105.032 153.485,108.887 156.497,114.592 155.407 C 117.756 154.802,117.648 155.101,113.031 159.718 C 103.673 169.075,110.902 181.434,122.198 175.389 C 125.823 173.449,125.631 171.526,121.754 170.970 C 117.631 170.379,118.054 165.393,122.696 159.876 C 128.518 152.957,129.238 131.994,124.005 121.754 C 122.921 119.632,122.629 117.895,123.358 117.895 C 124.087 117.895,125.682 117.511,126.903 117.043 C 130.272 115.750,130.228 157.856,126.856 161.582 C 124.769 163.889,124.769 164.267,126.856 166.354 C 130.954 170.453,130.167 226.808,125.923 233.105 C 118.837 243.621,98.246 243.227,98.246 232.577 C 98.246 231.503,98.770 231.542,99.930 232.702 C 102.101 234.873,108.425 234.873,110.596 232.702 C 113.534 229.764,112.598 223.431,108.865 220.984 L 105.449 218.746 108.865 212.322 C 113.388 203.815,112.898 196.953,107.509 193.355 C 104.821 191.560,95.851 192.198,94.099 194.309 C 91.383 197.581,92.827 202.800,96.462 202.848 C 104.250 202.948,103.480 208.737,94.261 219.388 C 79.186 236.806,90.778 253.647,115.816 250.704 C 120.004 250.212,125.027 250.471,127.182 251.291 C 130.278 252.468,131.286 252.328,132.259 250.590 C 133.850 247.746,138.411 247.806,139.516 250.684 C 140.189 252.439,140.821 252.585,142.330 251.332 C 143.634 250.251,147.297 250.027,153.424 250.654 C 166.569 252.001,176.104 239.823,168.140 231.860 C 164.018 227.737,155.685 230.842,155.900 236.421 C 155.961 238.004,156.330 238.509,156.719 237.544 C 157.489 235.635,162.807 235.083,162.807 236.912 C 162.807 242.547,152.758 242.798,147.260 237.301 L 143.158 233.198 143.158 201.078 C 143.158 176.006,143.582 168.377,145.092 166.313 C 146.735 164.066,146.735 163.377,145.092 161.734 C 143.747 160.389,143.158 156.103,143.158 147.669 C 143.158 137.410,143.450 135.856,145.051 137.594 C 163.836 157.982,175.424 171.338,172.670 169.427 C 168.567 166.578,160.308 166.341,156.842 168.971 C 153.643 171.400,153.668 173.114,156.878 171.396 C 160.049 169.699,164.211 171.881,164.211 175.240 C 164.211 176.598,165.092 178.914,166.168 180.387 C 167.868 182.711,167.821 183.296,165.817 184.821 C 164.337 185.947,164.138 186.593,165.263 186.622 C 166.228 186.647,167.018 188.201,167.018 190.075 C 167.018 194.133,170.806 198.357,173.514 197.318 C 174.967 196.760,175.439 198.114,175.439 202.842 L 175.439 209.104 168.772 204.291 C 165.105 201.643,160.526 198.016,158.596 196.230 L 155.088 192.982 158.829 192.550 C 165.148 191.819,165.749 185.263,159.496 185.263 C 152.158 185.263,150.268 195.556,156.681 200.600 C 159.972 203.189,160.073 203.509,157.600 203.509 C 150.810 203.509,147.564 214.746,152.947 219.617 C 155.082 221.550,157.013 221.917,161.368 221.221 C 166.326 220.428,167.018 220.649,167.018 223.027 C 167.018 227.865,168.654 230.175,172.080 230.175 L 175.439 230.175 175.439 248.140 C 175.439 267.297,174.748 269.474,168.670 269.474 C 165.865 269.474,165.565 269.119,166.953 267.446 C 169.838 263.970,168.217 258.947,164.211 258.947 C 161.029 258.947,160.702 259.493,160.702 264.795 C 160.702 268.011,160.228 271.117,159.649 271.696 C 150.924 280.423,170.888 293.802,179.943 285.296 C 182.263 283.116,183.801 282.614,185.285 283.552 C 188.584 285.638,190.877 285.134,190.877 282.323 C 190.877 280.899,192.173 278.560,193.757 277.127 C 196.075 275.029,196.554 273.138,196.213 267.436 C 195.793 260.405,195.822 260.351,200.000 260.351 C 204.178 260.351,204.207 260.405,203.787 267.436 C 203.446 273.138,203.925 275.029,206.243 277.127 C 207.827 278.560,209.123 280.899,209.123 282.323 C 209.123 285.134,211.416 285.638,214.715 283.552 C 216.199 282.614,217.737 283.116,220.057 285.296 C 229.112 293.802,249.076 280.423,240.351 271.696 C 239.772 271.117,239.298 268.011,239.298 264.795 C 239.298 259.493,238.971 258.947,235.789 258.947 C 231.783 258.947,230.162 263.970,233.047 267.446 C 235.216 270.059,228.838 270.382,226.246 267.789 C 223.606 265.150,224.185 257.753,227.176 255.884 C 229.894 254.187,232.192 248.421,230.152 248.421 C 229.511 248.421,229.932 246.526,231.088 244.211 C 233.451 239.472,237.959 238.586,239.235 242.609 C 240.480 246.529,238.708 249.743,234.757 250.735 C 231.693 251.504,231.539 251.796,233.596 252.947 C 235.126 253.803,238.397 253.690,242.833 252.625 C 246.610 251.719,251.543 251.383,253.795 251.877 C 256.794 252.536,258.113 252.194,258.725 250.599 C 259.804 247.788,264.766 247.783,266.338 250.590 C 267.310 252.328,268.319 252.468,271.414 251.291 C 273.570 250.471,278.593 250.212,282.780 250.704 C 307.554 253.616,318.683 237.655,304.211 219.969 C 294.578 208.196,293.751 203.228,301.378 202.949 C 310.235 202.625,306.350 192.281,297.372 192.281 C 286.618 192.281,283.468 200.542,289.732 212.322 L 293.147 218.746 289.732 220.984 C 285.998 223.431,285.062 229.764,288.000 232.702 C 290.200 234.902,296.480 234.861,298.838 232.632 C 300.370 231.184,300.411 231.429,299.070 234.035 C 294.559 242.802,282.366 243.713,274.517 235.869 L 270.175 231.531 269.751 200.149 C 269.376 172.365,269.595 168.500,271.667 166.428 C 273.824 164.272,273.829 163.890,271.741 161.582 C 268.369 157.856,268.324 115.750,271.694 117.043 C 272.915 117.511,274.510 117.895,275.239 117.895 C 275.967 117.895,275.676 119.632,274.591 121.754 C 269.359 131.994,270.079 152.957,275.901 159.876 C 280.543 165.393,280.966 170.379,276.842 170.970 C 270.927 171.819,275.351 176.842,282.013 176.842 C 290.636 176.842,292.580 167.896,285.629 160.202 C 281.042 155.125,280.943 154.821,284.068 155.419 C 289.714 156.498,293.562 153.465,293.064 148.328 C 292.550 143.018,285.741 141.014,282.637 145.259 C 280.197 148.596,277.878 143.963,277.944 135.882 C 277.991 130.266,278.122 130.055,279.755 132.995 C 283.126 139.065,293.176 143.232,297.544 140.370 C 299.338 139.194,299.280 138.987,297.149 138.969 C 291.881 138.924,293.482 125.190,299.247 120.973 C 303.739 117.688,302.590 110.780,297.714 111.755 C 292.302 112.838,291.207 110.685,291.743 100.019 C 292.152 91.900,291.880 90.963,288.000 87.082 C 284.179 83.262,284.046 82.826,286.466 82.058 C 289.439 81.114,291.233 75.837,290.080 71.428 C 289.571 69.479,292.277 71.356,298.256 77.097 C 307.352 85.831,320.224 92.990,329.825 94.654 L 334.737 95.506 331.228 93.016 C 312.685 79.859,301.826 61.615,301.567 43.182 L 301.453 35.088 295.195 35.088 C 288.030 35.088,284.550 33.591,278.561 27.933 L 274.316 23.921 263.825 27.603 C 252.807 31.470,237.625 32.640,227.018 30.439 C 222.060 29.410,221.754 29.548,221.754 32.817 C 221.754 36.552,215.391 42.657,212.610 41.589 C 211.721 41.248,210.252 43.020,209.345 45.528 C 205.923 54.991,194.092 55.032,190.678 45.592 C 189.759 43.049,188.279 41.248,187.390 41.589 C 184.609 42.657,178.246 36.552,178.246 32.817 C 178.246 29.548,177.940 29.410,172.982 30.439 C 160.287 33.073,141.983 30.754,127.652 24.695 C 126.281 24.116,124.210 25.136,122.038 27.460 M136.536 31.104 C 143.406 33.492,148.451 34.130,160.247 34.103 C 174.956 34.068,175.246 34.130,176.086 37.477 C 176.627 39.633,178.747 41.641,181.852 42.938 C 184.553 44.067,187.493 46.595,188.387 48.556 C 189.281 50.517,191.628 53.001,193.602 54.075 C 197.024 55.936,196.813 56.031,189.123 56.084 C 180.493 56.144,180.280 56.285,182.506 60.443 C 184.715 64.571,215.285 64.571,217.494 60.443 C 219.720 56.285,219.507 56.144,210.877 56.084 C 203.187 56.031,202.976 55.936,206.398 54.075 C 208.372 53.001,210.719 50.517,211.613 48.556 C 212.507 46.595,215.447 44.067,218.148 42.938 C 221.253 41.641,223.373 39.633,223.914 37.477 C 224.754 34.130,225.044 34.068,239.753 34.103 C 251.516 34.130,256.599 33.490,263.400 31.126 L 272.063 28.114 279.331 33.004 C 284.806 36.689,288.074 37.895,292.584 37.895 L 298.570 37.895 299.257 47.501 C 300.009 58.000,304.782 70.240,311.385 78.596 C 317.808 86.725,318.011 87.513,313.018 84.930 C 310.551 83.655,303.975 78.392,298.404 73.236 C 292.832 68.079,285.939 62.611,283.084 61.084 C 279.016 58.908,277.895 57.469,277.895 54.418 C 277.895 46.004,266.995 41.777,260.932 47.840 C 258.364 50.408,257.503 50.559,253.918 49.074 C 247.082 46.243,234.092 47.943,228.194 52.442 C 217.368 60.700,217.544 59.404,217.544 130.688 C 217.544 193.858,217.532 194.109,214.760 191.599 C 212.839 189.862,212.233 188.052,212.806 185.768 C 213.338 183.649,213.023 182.456,211.932 182.456 C 210.992 182.456,210.589 183.402,211.034 184.561 C 212.488 188.352,210.879 186.855,196.582 171.122 L 182.456 155.578 182.456 111.417 C 182.456 61.768,182.204 60.373,171.806 52.442 C 165.908 47.943,152.918 46.243,146.082 49.074 C 142.497 50.559,141.636 50.408,139.068 47.840 C 133.005 41.777,122.105 46.004,122.105 54.418 C 122.105 57.469,120.984 58.908,116.916 61.084 C 114.061 62.611,107.168 68.079,101.596 73.236 C 96.025 78.392,89.449 83.655,86.982 84.930 C 81.989 87.513,82.192 86.725,88.615 78.596 C 95.218 70.240,99.991 58.000,100.743 47.501 L 101.430 37.895 107.083 37.895 C 112.780 37.895,124.912 32.124,124.912 29.415 C 124.912 27.450,126.820 27.727,136.536 31.104 M125.263 33.894 C 122.116 37.043,123.386 37.895,131.228 37.895 C 139.019 37.895,141.620 36.052,135.789 34.663 C 134.053 34.249,131.368 33.512,129.825 33.024 C 128.281 32.537,126.228 32.928,125.263 33.894 M265.614 34.172 C 258.817 36.402,260.083 37.895,268.772 37.895 C 276.566 37.895,277.881 37.039,274.807 33.965 C 272.899 32.057,271.998 32.077,265.614 34.172 M112.365 41.335 C 108.937 42.253,105.885 43.750,105.581 44.660 C 104.747 47.163,120.728 46.737,124.128 44.166 C 127.606 41.535,136.035 41.584,139.566 44.255 C 142.590 46.542,176.842 47.346,176.842 45.130 C 176.842 39.319,130.146 36.570,112.365 41.335 M225.481 41.865 C 224.203 43.277,223.158 44.856,223.158 45.374 C 223.158 47.421,257.615 46.387,260.434 44.255 C 263.965 41.584,272.394 41.535,275.872 44.166 C 279.230 46.705,295.254 47.165,294.432 44.699 C 292.566 39.101,230.298 36.542,225.481 41.865 M104.795 48.655 C 104.281 49.170,103.860 50.782,103.860 52.237 C 103.860 56.500,117.830 55.281,119.450 50.877 C 120.610 47.724,107.686 45.764,104.795 48.655 M136.411 50.175 C 139.823 54.148,140.348 57.203,137.960 59.185 C 136.011 60.802,135.862 60.633,136.756 57.816 C 137.943 54.076,135.583 50.526,131.908 50.526 C 128.348 50.526,127.031 54.973,129.956 57.112 C 134.253 60.254,127.902 65.448,118.346 66.607 L 112.982 67.258 118.596 63.812 C 121.684 61.916,124.668 60.362,125.228 60.358 C 125.788 60.354,125.887 58.560,125.449 56.370 C 124.028 49.262,131.837 44.849,136.411 50.175 M175.183 51.228 C 178.831 54.298,186.667 56.150,186.667 53.943 C 186.667 49.994,183.275 47.719,177.387 47.719 L 171.013 47.719 175.183 51.228 M214.786 50.434 C 212.702 54.328,212.912 54.737,216.990 54.737 C 219.002 54.737,222.524 53.158,224.817 51.228 L 228.987 47.719 222.613 47.719 C 217.748 47.719,215.895 48.362,214.786 50.434 M273.012 50.054 C 274.587 51.629,275.088 53.685,274.551 56.370 C 274.113 58.560,274.212 60.354,274.772 60.358 C 275.332 60.362,278.316 61.906,281.404 63.789 C 286.917 67.152,286.942 67.204,282.807 66.686 C 280.491 66.396,277.855 66.115,276.950 66.062 C 272.612 65.807,266.203 58.479,269.313 57.329 C 272.779 56.047,273.083 54.343,270.265 52.004 C 266.835 49.157,261.989 52.684,263.123 57.203 C 263.907 60.326,263.738 60.593,261.926 59.090 C 259.650 57.201,260.232 54.084,263.589 50.175 C 266.245 47.083,269.992 47.035,273.012 50.054 M280.524 50.808 C 282.344 55.756,296.590 56.542,295.897 51.656 C 295.488 48.767,294.577 48.376,287.388 48.001 C 279.512 47.590,279.363 47.651,280.524 50.808 M102.456 59.649 C 102.456 62.252,103.200 63.158,105.338 63.158 C 106.922 63.158,110.543 61.579,113.383 59.649 L 118.546 56.140 110.501 56.140 C 102.855 56.140,102.456 56.315,102.456 59.649 M165.614 58.246 L 169.123 60.251 164.912 60.375 L 160.702 60.498 163.860 62.701 C 165.596 63.913,167.018 66.300,167.018 68.007 C 167.018 69.714,167.491 71.589,168.070 72.174 C 168.649 72.758,169.187 74.284,169.266 75.565 C 169.345 76.847,169.502 79.632,169.617 81.754 C 169.770 84.609,170.555 85.614,172.632 85.614 C 175.311 85.614,175.439 86.550,175.439 106.199 C 175.439 117.520,175.281 126.506,175.088 126.166 C 174.895 125.827,171.316 121.964,167.135 117.582 C 161.595 111.775,160.357 109.830,162.571 110.409 C 176.603 114.078,174.985 91.165,160.645 83.140 C 158.060 81.693,158.111 81.488,161.775 78.605 C 166.195 75.128,166.841 69.646,163.291 65.725 C 160.310 62.431,155.933 62.054,158.648 65.325 C 160.169 67.158,159.707 68.130,155.662 71.616 C 150.215 76.310,146.481 76.444,143.579 72.051 C 141.614 69.077,141.690 69.030,147.278 69.780 C 153.434 70.606,154.243 69.684,150.751 65.825 C 144.628 59.059,156.472 53.019,165.614 58.246 M248.109 58.325 C 251.740 60.869,252.090 63.503,249.123 65.965 C 245.359 69.089,246.765 70.579,252.722 69.780 C 258.310 69.030,258.386 69.077,256.421 72.051 C 253.519 76.444,249.785 76.310,244.338 71.616 C 240.293 68.130,239.831 67.158,241.352 65.325 C 243.910 62.244,240.392 62.368,236.953 65.481 C 233.143 68.928,233.685 75.034,238.109 78.514 C 240.157 80.125,241.578 81.617,241.267 81.831 C 233.743 86.996,229.985 90.803,227.548 95.725 L 224.564 101.754 224.563 93.684 C 224.562 86.711,224.921 85.614,227.209 85.614 C 230.083 85.614,232.376 77.230,229.930 75.666 C 229.220 75.211,229.616 74.029,230.811 73.038 C 232.005 72.046,232.982 69.811,232.982 68.070 C 232.982 66.328,234.404 63.913,236.140 62.701 L 239.298 60.498 235.088 60.375 L 230.877 60.251 234.386 58.246 C 239.015 55.599,244.261 55.630,248.109 58.325 M286.592 59.591 C 293.286 64.192,297.911 64.369,297.291 60.000 C 296.896 57.223,295.912 56.793,289.123 56.434 L 281.404 56.025 286.592 59.591 M134.347 66.740 C 132.447 72.933,127.697 78.196,122.930 79.393 C 116.427 81.025,112.136 77.245,114.456 71.930 C 115.327 69.935,115.688 70.265,116.375 73.684 C 117.656 80.061,124.028 79.791,124.650 73.333 C 124.892 70.825,125.887 68.772,126.862 68.772 C 127.836 68.772,130.117 67.193,131.930 65.263 C 136.138 60.784,136.170 60.803,134.347 66.740 M273.321 68.772 C 274.195 68.772,275.108 70.825,275.350 73.333 C 275.972 79.791,282.344 80.061,283.625 73.684 C 284.312 70.265,284.673 69.935,285.544 71.930 C 287.864 77.245,283.573 81.025,277.070 79.393 C 272.254 78.184,267.548 72.917,265.593 66.546 L 264.004 61.367 267.868 65.069 C 269.994 67.106,272.447 68.772,273.321 68.772 M99.242 67.368 C 98.839 68.912,98.983 70.175,99.563 70.175 C 100.143 70.175,101.761 68.912,103.158 67.368 C 105.619 64.649,105.609 64.561,102.837 64.561 C 101.157 64.561,99.674 65.720,99.242 67.368 M185.516 67.719 C 185.947 70.754,186.514 70.877,200.000 70.877 C 213.486 70.877,214.053 70.754,214.484 67.719 C 214.925 64.614,214.682 64.561,200.000 64.561 C 185.318 64.561,185.075 64.614,185.516 67.719 M296.850 67.377 C 299.642 70.463,301.173 70.133,299.867 66.727 C 299.409 65.536,297.970 64.561,296.669 64.561 C 294.509 64.561,294.525 64.808,296.850 67.377 M148.443 81.472 C 157.068 84.229,162.630 88.322,166.328 94.631 C 170.646 101.999,170.901 104.534,167.119 102.511 C 163.445 100.544,160.007 102.108,159.967 105.764 C 159.940 108.309,158.948 107.737,153.524 102.052 C 148.399 96.680,147.441 94.937,148.747 93.363 C 150.721 90.985,154.013 91.990,154.791 95.207 C 155.285 97.253,155.499 97.211,156.509 94.868 C 160.010 86.744,144.928 79.907,139.765 87.277 C 137.864 89.992,137.133 90.220,135.072 88.745 C 133.730 87.784,131.211 86.269,129.474 85.379 C 125.416 83.299,125.493 82.229,129.845 80.246 C 131.786 79.361,134.113 77.017,135.016 75.036 L 136.657 71.434 139.930 75.615 C 141.730 77.915,145.561 80.551,148.443 81.472 M264.592 74.483 C 265.099 76.080,267.428 78.551,269.768 79.974 L 274.022 82.561 269.728 84.781 C 267.366 86.002,264.448 88.409,263.243 90.129 C 262.038 91.849,261.053 92.484,261.053 91.540 C 261.053 88.121,255.479 84.211,250.606 84.211 C 245.259 84.211,241.404 88.128,241.404 93.563 C 241.404 97.850,243.750 98.922,245.593 95.478 C 247.292 92.303,251.187 91.749,253.754 94.316 C 255.903 96.464,256.172 145.965,254.035 145.965 C 252.706 145.965,252.040 143.901,252.515 141.256 C 252.633 140.596,252.022 139.202,251.156 138.159 C 250.291 137.117,250.050 135.508,250.620 134.585 C 251.190 133.663,250.771 132.199,249.688 131.334 C 244.800 127.426,244.506 124.482,248.658 120.989 C 251.438 118.650,252.632 116.346,252.632 113.319 C 252.632 104.107,242.911 100.574,236.525 107.465 L 233.184 111.069 231.520 107.959 C 227.419 100.297,236.958 86.467,249.228 82.286 C 256.517 79.803,261.053 76.420,261.053 73.467 C 261.053 70.527,263.565 71.248,264.592 74.483 M186.667 76.491 C 186.667 79.988,186.713 80.000,200.000 80.000 C 213.287 80.000,213.333 79.988,213.333 76.491 C 213.333 72.995,213.287 72.982,200.000 72.982 C 186.713 72.982,186.667 72.995,186.667 76.491 M186.667 84.912 C 186.667 88.409,186.713 88.421,200.000 88.421 C 213.287 88.421,213.333 88.409,213.333 84.912 C 213.333 81.416,213.287 81.404,200.000 81.404 C 186.713 81.404,186.667 81.416,186.667 84.912 M130.672 91.212 C 135.675 96.471,140.351 97.646,140.351 93.645 C 140.351 90.897,144.960 87.018,148.224 87.018 L 151.451 87.018 148.006 90.463 C 142.648 95.820,141.446 93.842,167.344 122.289 C 174.112 129.723,179.649 136.211,179.649 136.706 C 179.649 137.202,171.344 128.435,161.194 117.225 C 151.043 106.014,142.475 96.842,142.154 96.842 C 141.833 96.842,140.506 97.399,139.206 98.080 C 136.175 99.667,130.526 97.572,130.526 94.862 C 130.526 89.574,118.407 86.272,114.792 90.575 C 113.797 91.760,112.193 93.609,111.228 94.685 C 110.263 95.761,109.474 97.424,109.474 98.379 C 109.474 99.335,109.073 99.716,108.583 99.226 C 107.159 97.803,110.989 89.905,114.190 87.663 C 119.499 83.945,124.856 85.098,130.672 91.212 M285.678 89.059 C 289.199 92.580,290.156 95.439,287.814 95.439 C 287.094 95.439,286.105 94.177,285.615 92.635 C 283.667 86.498,272.129 87.416,268.345 94.009 C 265.971 98.145,263.191 99.676,260.000 98.602 C 257.031 97.603,258.063 95.654,261.136 96.457 C 263.175 96.991,264.231 96.436,264.723 94.571 C 266.789 86.742,279.909 83.291,285.678 89.059 M255.679 89.340 C 257.091 90.618,258.246 92.242,258.246 92.949 C 258.246 93.657,257.253 93.243,256.040 92.030 C 254.827 90.817,251.948 89.825,249.641 89.825 C 247.203 89.825,245.811 89.237,246.316 88.421 C 247.656 86.252,252.828 86.760,255.679 89.340 M186.667 93.333 C 186.667 96.830,186.713 96.842,200.000 96.842 C 213.287 96.842,213.333 96.830,213.333 93.333 C 213.333 89.837,213.287 89.825,200.000 89.825 C 186.713 89.825,186.667 89.837,186.667 93.333 M127.758 95.511 C 129.397 98.573,129.589 113.231,128.003 114.211 C 126.320 115.251,123.460 113.071,121.592 109.325 C 120.678 107.491,118.682 105.765,117.158 105.490 C 111.877 104.539,112.378 103.093,117.809 103.611 C 124.839 104.281,127.867 100.121,124.306 94.685 C 122.354 91.706,122.346 91.409,124.245 92.137 C 125.427 92.591,127.008 94.109,127.758 95.511 M273.218 95.666 C 271.749 101.282,274.685 104.283,280.840 103.458 C 283.943 103.042,285.976 103.274,285.532 103.993 C 285.100 104.692,283.535 105.263,282.055 105.263 C 280.574 105.263,278.258 107.000,276.907 109.123 C 271.684 117.331,269.474 116.340,269.474 105.790 C 269.474 98.698,271.190 92.632,273.196 92.632 C 273.644 92.632,273.655 93.997,273.218 95.666 M121.951 95.954 C 123.160 97.411,123.048 98.284,121.488 99.579 C 118.162 102.339,115.227 100.901,116.619 97.193 C 117.974 93.583,119.658 93.192,121.951 95.954 M282.277 97.967 C 283.250 100.596,282.928 101.053,280.105 101.053 C 276.335 101.053,274.523 97.968,276.899 95.592 C 279.052 93.439,280.905 94.257,282.277 97.967 M186.667 101.754 C 186.667 105.251,186.713 105.263,200.000 105.263 C 213.287 105.263,213.333 105.251,213.333 101.754 C 213.333 98.258,213.287 98.246,200.000 98.246 C 186.713 98.246,186.667 98.258,186.667 101.754 M186.667 110.175 C 186.667 113.672,186.713 113.684,200.000 113.684 C 213.287 113.684,213.333 113.672,213.333 110.175 C 213.333 106.679,213.287 106.667,200.000 106.667 C 186.713 106.667,186.667 106.679,186.667 110.175 M242.642 110.526 C 242.527 112.649,242.892 115.649,243.454 117.193 C 244.183 119.195,244.085 119.454,243.115 118.096 C 242.185 116.794,240.376 116.494,237.403 117.147 C 235.009 117.673,232.252 117.609,231.276 117.006 C 230.052 116.249,230.582 115.654,232.989 115.086 C 234.936 114.627,236.706 113.050,236.997 111.517 C 237.503 108.847,239.597 106.732,241.777 106.688 C 242.368 106.676,242.757 108.404,242.642 110.526 M115.558 109.666 C 117.672 107.911,118.190 108.272,119.712 112.560 C 120.330 114.301,119.975 114.721,118.399 114.116 C 116.546 113.405,116.379 114.404,117.223 121.157 C 118.173 128.765,118.051 129.181,113.541 133.636 L 108.877 138.246 107.652 132.632 C 106.978 129.544,106.389 125.313,106.342 123.229 C 106.281 120.534,105.435 119.318,103.414 119.018 C 99.304 118.409,98.696 115.092,102.690 115.066 C 106.768 115.039,108.686 113.767,110.002 110.215 C 110.831 107.980,111.263 107.828,112.249 109.423 C 113.227 111.005,113.886 111.053,115.558 109.666 M286.179 109.694 C 286.898 108.531,287.746 109.117,288.849 111.539 C 290.073 114.226,291.525 115.088,294.824 115.088 C 299.701 115.088,299.994 118.305,295.183 119.018 C 293.174 119.316,292.303 120.551,292.215 123.229 C 292.002 129.638,290.279 137.544,289.094 137.544 C 284.710 137.544,280.469 128.394,281.400 120.944 C 282.243 114.199,282.083 113.393,280.053 114.171 C 278.786 114.658,278.000 114.589,278.307 114.019 C 278.614 113.449,279.286 111.806,279.800 110.368 C 280.586 108.172,281.086 108.045,282.931 109.576 C 284.636 110.992,285.361 111.018,286.179 109.694 M186.667 118.596 C 186.667 122.093,186.713 122.105,200.000 122.105 C 213.287 122.105,213.333 122.093,213.333 118.596 C 213.333 115.100,213.287 115.088,200.000 115.088 C 186.713 115.088,186.667 115.100,186.667 118.596 M229.526 126.373 C 231.242 128.270,231.452 129.123,230.202 129.123 C 228.865 129.123,228.615 130.761,229.248 135.378 C 229.741 138.975,229.514 141.998,228.714 142.492 C 226.813 143.667,228.633 146.319,230.776 145.496 C 232.009 145.023,232.466 146.952,232.388 152.302 C 232.287 159.339,232.059 159.801,228.421 160.342 L 224.561 160.917 224.705 137.652 C 224.794 123.201,225.263 116.136,225.943 119.005 C 226.545 121.545,228.157 124.861,229.526 126.373 M186.667 127.018 C 186.667 130.514,186.713 130.526,200.000 130.526 C 213.287 130.526,213.333 130.514,213.333 127.018 C 213.333 123.521,213.287 123.509,200.000 123.509 C 186.713 123.509,186.667 123.521,186.667 127.018 M189.593 180.351 C 215.387 208.912,238.228 234.382,240.351 236.950 C 243.976 241.335,245.756 249.825,243.050 249.825 C 242.412 249.825,242.155 248.019,242.479 245.811 C 243.187 240.986,247.348 245.975,187.018 179.314 C 161.351 150.955,140.351 127.302,140.351 126.753 C 140.351 126.204,140.878 126.354,141.523 127.088 C 142.168 127.821,163.799 151.789,189.593 180.351 M122.463 147.172 C 121.015 149.113,119.042 150.963,118.080 151.283 C 117.119 151.604,117.947 150.251,119.920 148.278 C 122.663 145.535,123.567 143.103,123.754 137.959 L 123.999 131.228 124.548 137.436 C 124.948 141.959,124.383 144.602,122.463 147.172 M186.667 135.439 C 186.667 138.935,186.713 138.947,200.000 138.947 C 213.287 138.947,213.333 138.935,213.333 135.439 C 213.333 131.942,213.287 131.930,200.000 131.930 C 186.713 131.930,186.667 131.942,186.667 135.439 M244.211 134.079 C 244.211 135.261,245.154 136.591,246.308 137.033 C 247.461 137.476,248.082 138.360,247.688 138.997 C 247.294 139.635,247.614 140.554,248.398 141.038 C 249.183 141.523,249.825 143.103,249.825 144.550 C 249.825 145.996,251.088 147.580,252.632 148.070 C 256.015 149.144,256.621 158.617,253.505 161.734 C 251.861 163.377,251.861 164.066,253.505 166.313 C 254.961 168.304,255.439 174.624,255.439 191.896 L 255.439 214.834 239.992 197.824 C 224.824 181.119,224.598 180.771,227.422 178.477 C 229.929 176.440,230.711 173.977,231.419 165.892 C 231.507 164.887,233.535 163.383,235.925 162.550 C 238.991 161.481,239.731 160.701,238.439 159.903 C 236.994 159.009,237.298 157.390,239.884 152.211 C 242.502 146.970,242.997 144.271,242.348 138.790 C 241.877 134.810,242.097 131.930,242.873 131.930 C 243.609 131.930,244.211 132.897,244.211 134.079 M279.158 148.940 C 280.950 150.392,281.761 151.579,280.959 151.579 C 277.473 151.579,273.685 144.154,273.882 137.705 L 274.079 131.228 274.989 138.765 C 275.651 144.249,276.787 147.020,279.158 148.940 M186.667 143.860 C 186.667 147.356,186.713 147.368,200.000 147.368 C 213.287 147.368,213.333 147.356,213.333 143.860 C 213.333 140.363,213.287 140.351,200.000 140.351 C 186.713 140.351,186.667 140.363,186.667 143.860 M114.028 149.474 C 114.722 153.108,114.062 153.578,110.290 152.131 C 107.105 150.908,107.445 145.965,110.714 145.965 C 112.419 145.965,113.595 147.210,114.028 149.474 M290.526 148.622 C 290.526 150.997,288.006 152.982,284.992 152.982 C 284.390 152.982,284.200 151.404,284.569 149.474 C 285.382 145.222,290.526 144.486,290.526 148.622 M186.667 152.281 C 186.667 155.777,186.713 155.789,200.000 155.789 C 213.287 155.789,213.333 155.777,213.333 152.281 C 213.333 148.784,213.287 148.772,200.000 148.772 C 186.713 148.772,186.667 148.784,186.667 152.281 M186.667 158.379 C 186.667 162.187,192.184 164.211,202.567 164.211 C 213.115 164.211,213.333 164.140,213.333 160.702 C 213.333 157.205,213.287 157.193,200.000 157.193 C 192.667 157.193,186.667 157.727,186.667 158.379 M116.919 162.935 C 115.240 166.301,115.100 168.032,116.294 170.655 C 118.045 174.498,116.365 175.112,113.083 171.830 C 110.017 168.764,110.302 167.070,114.649 162.533 C 119.392 157.581,119.574 157.613,116.919 162.935 M287.719 168.343 C 287.719 169.998,283.688 174.035,282.035 174.035 C 281.335 174.035,281.455 172.514,282.302 170.655 C 283.504 168.017,283.345 166.244,281.578 162.584 L 279.313 157.895 283.516 162.478 C 285.828 164.999,287.719 167.638,287.719 168.343 M195.088 166.800 C 195.088 169.878,200.607 172.632,206.777 172.632 C 212.835 172.632,213.333 172.365,213.333 169.123 C 213.333 165.740,213.006 165.614,204.211 165.614 C 199.193 165.614,195.088 166.148,195.088 166.800 M202.105 175.221 C 202.105 177.413,207.211 181.053,210.286 181.053 C 212.601 181.053,213.333 180.209,213.333 177.544 C 213.333 174.386,212.772 174.035,207.719 174.035 C 204.632 174.035,202.105 174.569,202.105 175.221 M186.667 186.137 C 186.667 188.605,187.489 189.523,189.825 189.665 L 192.982 189.856 189.825 190.464 C 182.547 191.866,185.832 197.865,194.035 198.154 L 201.404 198.414 194.035 198.929 C 186.929 199.427,186.667 199.592,186.667 203.582 L 186.667 207.719 198.246 208.005 L 209.825 208.291 198.246 208.763 C 187.009 209.222,186.667 209.338,186.667 212.688 C 186.667 216.113,186.772 216.140,200.000 216.140 C 209.380 216.140,213.333 215.645,213.333 214.469 C 213.333 213.549,214.261 214.023,215.394 215.521 C 217.027 217.681,217.464 223.571,217.499 243.923 C 217.553 274.731,218.621 277.174,231.647 276.271 C 239.067 275.757,239.955 276.734,236.524 281.633 C 232.127 287.910,221.922 286.461,219.628 279.233 C 218.746 276.453,218.545 276.420,216.081 278.651 C 211.740 282.579,206.062 275.130,207.203 267.005 C 207.741 263.167,207.420 260.278,206.305 258.935 C 204.037 256.201,206.254 256.253,210.214 259.027 C 213.262 261.162,213.333 261.098,213.333 256.220 L 213.333 251.228 200.000 251.228 L 186.667 251.228 186.667 256.220 C 186.667 261.098,186.738 261.162,189.786 259.027 C 193.746 256.253,195.963 256.201,193.695 258.935 C 192.580 260.278,192.259 263.167,192.797 267.005 C 193.938 275.130,188.260 282.579,183.919 278.651 C 181.455 276.420,181.254 276.453,180.372 279.233 C 178.078 286.461,167.873 287.910,163.476 281.633 C 160.045 276.734,160.933 275.757,168.353 276.271 C 174.288 276.683,175.827 276.230,178.880 273.177 L 182.456 269.601 182.456 224.453 C 182.456 184.481,182.697 179.506,184.561 181.053 C 185.719 182.014,186.667 184.301,186.667 186.137 M248.418 211.926 C 253.987 218.104,258.222 223.158,257.830 223.158 C 257.438 223.158,248.790 213.842,238.614 202.456 C 228.437 191.070,224.201 186.016,229.202 191.225 C 234.202 196.433,242.849 205.749,248.418 211.926 M105.776 196.593 C 107.810 198.193,109.468 200.561,109.461 201.856 C 109.445 204.691,101.809 218.314,99.402 219.802 C 98.463 220.382,99.120 218.855,100.863 216.407 C 107.309 207.355,105.142 196.890,97.434 199.848 C 94.549 200.955,94.950 196.916,97.895 195.200 C 101.267 193.236,101.578 193.291,105.776 196.593 M302.909 198.399 C 303.214 199.944,302.678 200.429,301.264 199.887 C 294.216 197.182,291.175 206.081,296.190 214.737 L 299.036 219.649 295.461 215.439 C 289.023 207.857,287.861 200.940,292.372 197.060 C 296.573 193.447,302.069 194.145,302.909 198.399 M166.057 207.884 C 168.923 209.349,173.942 214.568,173.998 216.140 C 174.081 218.500,164.414 217.070,163.775 214.628 C 162.888 211.234,157.811 211.077,155.954 214.386 C 154.660 216.690,154.511 216.676,153.545 214.167 C 151.519 208.908,159.865 204.717,166.057 207.884 M186.667 221.053 C 186.667 224.549,186.713 224.561,200.000 224.561 C 213.287 224.561,213.333 224.549,213.333 221.053 C 213.333 217.556,213.287 217.544,200.000 217.544 C 186.713 217.544,186.667 217.556,186.667 221.053 M107.253 223.602 C 110.529 225.997,109.596 230.755,105.743 231.307 C 103.520 231.625,102.405 230.723,101.439 227.827 L 100.136 223.917 97.655 227.703 C 92.151 236.104,101.083 244.906,113.988 243.797 C 117.628 243.484,120.275 243.765,119.870 244.421 C 119.464 245.077,118.185 245.614,117.027 245.614 C 115.869 245.614,115.312 246.246,115.789 247.018 C 118.790 251.872,98.267 246.855,93.478 241.563 C 84.772 231.943,96.948 216.067,107.253 223.602 M305.138 226.073 C 310.955 232.985,308.143 241.525,298.550 246.077 C 293.157 248.636,281.372 249.340,282.807 247.018 C 283.284 246.246,282.760 245.614,281.642 245.614 C 280.524 245.614,278.118 244.358,276.296 242.822 L 272.982 240.030 277.674 242.288 C 288.030 247.272,301.754 242.037,301.754 233.102 C 301.754 226.366,299.077 223.413,296.910 227.759 C 294.983 231.624,290.057 231.887,289.340 228.163 C 287.979 221.093,299.649 219.549,305.138 226.073 M186.667 229.474 C 186.667 232.970,186.713 232.982,200.000 232.982 C 213.287 232.982,213.333 232.970,213.333 229.474 C 213.333 225.977,213.287 225.965,200.000 225.965 C 186.713 225.965,186.667 225.977,186.667 229.474 M229.888 231.432 L 234.281 236.898 229.421 237.465 L 224.561 238.033 224.561 231.999 C 224.561 224.665,224.460 224.676,229.888 231.432 M166.872 241.083 C 164.152 248.239,156.636 250.627,151.601 245.935 C 149.019 243.530,149.114 243.467,154.536 243.984 C 161.567 244.655,166.159 241.138,165.149 235.855 C 164.529 232.611,164.624 232.537,166.358 234.909 C 167.725 236.778,167.866 238.470,166.872 241.083 M186.667 237.895 C 186.667 241.391,186.713 241.404,200.000 241.404 C 213.287 241.404,213.333 241.391,213.333 237.895 C 213.333 234.398,213.287 234.386,200.000 234.386 C 186.713 234.386,186.667 234.398,186.667 237.895 M186.667 246.316 C 186.667 249.812,186.713 249.825,200.000 249.825 C 213.287 249.825,213.333 249.812,213.333 246.316 C 213.333 242.819,213.287 242.807,200.000 242.807 C 186.713 242.807,186.667 242.819,186.667 246.316 M0.553 302.211 C -0.484 305.493,0.962 306.968,3.111 304.819 C 8.913 299.017,11.228 302.547,11.228 317.193 C 11.228 326.951,10.729 331.228,9.591 331.228 C 5.816 331.228,10.383 333.283,14.783 333.564 C 19.851 333.889,22.491 332.080,18.939 330.717 C 17.282 330.081,16.842 327.109,16.842 316.535 L 16.842 303.158 20.395 303.158 C 22.349 303.158,24.311 304.105,24.756 305.263 C 26.016 308.547,28.070 307.737,28.070 303.956 C 28.070 299.287,2.000 297.634,0.553 302.211 M64.804 301.404 C 64.111 302.754,61.454 309.763,58.900 316.979 C 56.345 324.194,53.416 330.419,52.391 330.813 C 48.833 332.178,50.552 333.757,55.445 333.618 C 59.368 333.507,60.213 333.004,59.620 331.135 C 59.211 329.846,59.508 327.129,60.280 325.098 C 63.103 317.673,72.982 321.829,72.982 330.442 C 72.982 332.529,75.973 334.035,80.115 334.035 C 83.182 334.035,83.740 331.886,80.951 330.816 C 79.929 330.424,76.396 323.093,73.099 314.525 C 66.621 297.693,66.668 297.768,64.804 301.404 M75.789 302.587 C 75.789 305.651,76.164 306.152,77.474 304.842 C 78.400 303.916,80.926 303.158,83.088 303.158 L 87.018 303.158 87.018 316.408 C 87.018 323.728,86.389 330.047,85.614 330.526 C 82.667 332.348,84.425 333.707,89.825 333.782 C 95.108 333.855,97.459 332.135,93.760 330.903 C 92.670 330.539,91.874 325.581,91.488 316.751 L 90.893 303.158 95.201 303.158 C 97.824 303.158,100.069 304.119,100.940 305.614 C 102.163 307.714,102.377 307.510,102.413 304.211 L 102.456 300.351 91.343 300.351 C 85.231 300.351,79.231 299.968,78.010 299.499 C 76.310 298.847,75.789 299.571,75.789 302.587 M135.409 303.609 C 123.682 315.336,130.562 333.099,146.831 333.099 C 158.864 333.099,166.574 322.194,162.992 310.241 C 159.477 298.508,144.186 294.832,135.409 303.609 M183.860 314.971 C 183.860 326.476,183.365 331.194,182.105 331.702 C 181.140 332.091,183.193 332.441,186.667 332.478 C 191.608 332.531,192.448 332.235,190.526 331.116 C 188.545 329.962,188.073 327.732,188.083 319.579 L 188.096 309.474 199.217 321.526 C 210.318 333.556,210.351 333.579,217.450 333.662 C 223.815 333.737,226.942 332.256,223.114 330.979 C 222.136 330.654,222.181 329.021,223.251 325.950 C 225.841 318.521,233.050 319.325,235.833 327.353 C 237.903 333.327,240.717 335.137,245.237 333.403 C 247.213 332.645,247.138 332.278,244.651 330.537 C 243.031 329.402,239.513 322.443,236.501 314.411 C 230.081 297.296,229.688 296.984,226.299 306.299 C 224.821 310.361,222.169 317.632,220.406 322.456 C 215.463 335.988,213.333 334.227,213.333 316.608 C 213.333 306.226,213.842 301.783,215.088 301.280 C 216.053 300.891,214.000 300.542,210.526 300.504 C 205.585 300.451,204.745 300.748,206.667 301.867 C 208.657 303.026,209.111 305.215,209.058 313.403 L 208.993 323.509 197.479 311.213 C 183.186 295.950,183.860 295.764,183.860 314.971 M247.552 301.627 C 240.150 306.141,237.885 317.216,242.737 325.174 C 248.942 335.350,269.589 336.985,269.400 327.286 L 269.326 323.509 267.124 326.667 C 261.765 334.349,245.614 326.336,245.614 315.996 C 245.614 302.844,261.481 296.367,267.328 307.132 L 269.361 310.877 269.417 305.764 C 269.483 299.841,268.044 298.945,258.482 298.953 C 254.520 298.956,250.199 300.013,247.552 301.627 M289.668 300.247 C 276.665 305.835,278.016 328.885,291.559 332.532 C 308.596 337.119,322.041 317.383,310.600 304.579 C 306.186 299.639,295.991 297.529,289.668 300.247 M315.789 314.971 C 315.789 326.476,315.295 331.194,314.035 331.702 C 313.070 332.091,315.123 332.441,318.596 332.478 C 323.538 332.531,324.378 332.235,322.456 331.116 C 320.475 329.962,320.002 327.732,320.013 319.579 L 320.026 309.474 331.147 321.526 C 342.248 333.556,342.281 333.579,349.380 333.662 C 355.630 333.735,358.712 332.352,355.324 330.994 C 354.682 330.737,354.700 328.474,355.364 325.965 C 357.359 318.429,364.965 319.280,367.763 327.353 L 369.825 333.303 384.561 333.318 L 399.298 333.333 399.681 329.123 C 400.027 325.313,399.879 325.146,398.123 327.368 C 397.012 328.774,394.297 329.825,391.775 329.825 L 387.368 329.825 387.368 316.772 C 387.368 308.491,387.984 303.104,389.053 302.035 C 390.363 300.725,389.349 300.376,384.491 300.462 C 381.056 300.523,379.035 300.891,380.000 301.280 C 383.243 302.589,382.400 331.228,379.119 331.228 C 375.358 331.228,374.075 329.205,368.401 314.316 C 361.623 296.531,361.899 296.517,355.122 314.994 C 347.364 336.146,345.263 336.490,345.263 316.608 C 345.263 306.226,345.772 301.783,347.018 301.280 C 347.982 300.891,345.930 300.542,342.456 300.504 C 337.515 300.451,336.675 300.748,338.596 301.867 C 340.587 303.026,341.040 305.215,340.988 313.403 L 340.923 323.509 329.409 311.213 C 315.116 295.950,315.789 295.764,315.789 314.971 M31.228 301.867 C 34.504 303.775,34.866 327.039,31.669 330.236 C 29.918 331.987,30.765 332.367,38.129 333.136 C 48.052 334.173,49.137 333.733,49.080 328.689 C 49.043 325.446,48.835 325.259,47.607 327.368 C 44.306 333.035,37.895 330.487,37.895 323.509 C 37.895 317.708,38.181 317.193,41.404 317.193 C 43.333 317.193,44.912 317.825,44.912 318.596 C 44.912 319.368,45.544 320.000,46.316 320.000 C 47.088 320.000,47.719 318.461,47.719 316.579 C 47.719 313.454,47.295 313.228,42.807 313.956 L 37.895 314.753 37.895 308.956 C 37.895 302.649,43.206 300.358,46.049 305.438 C 47.110 307.334,47.444 307.097,48.029 304.035 L 48.734 300.351 38.753 300.394 C 31.287 300.425,29.391 300.797,31.228 301.867 M105.263 301.683 C 108.270 303.644,108.228 329.382,105.215 331.287 C 102.859 332.777,102.814 332.757,109.792 333.394 C 115.161 333.884,118.124 332.155,114.378 330.717 C 111.828 329.739,111.440 320.000,113.950 320.000 C 114.869 320.000,118.538 323.158,122.105 327.018 C 128.236 333.652,136.140 336.813,136.140 332.632 C 136.140 331.860,135.235 331.228,134.129 331.228 C 133.023 331.228,129.843 328.453,127.064 325.060 L 122.010 318.892 124.468 313.738 C 128.686 304.891,125.385 301.154,112.935 300.681 C 106.175 300.425,103.807 300.734,105.263 301.683 M272.000 302.035 C 274.076 304.111,274.324 329.264,272.281 330.526 C 269.333 332.348,271.092 333.707,276.491 333.782 C 281.824 333.855,284.116 332.131,280.351 330.878 C 277.601 329.962,277.920 303.489,280.702 301.727 C 282.216 300.768,281.053 300.388,276.561 300.372 C 271.704 300.356,270.690 300.725,272.000 302.035 M153.655 305.106 C 158.269 309.721,159.577 317.631,156.717 323.628 C 152.526 332.416,141.617 331.728,137.048 322.388 C 130.536 309.075,143.810 295.262,153.655 305.106 M304.669 305.857 C 312.770 313.957,308.659 329.882,298.495 329.780 C 290.712 329.702,286.316 324.156,286.316 314.414 C 286.316 302.899,296.815 298.003,304.669 305.857 M119.018 304.842 C 122.972 308.796,120.109 317.193,114.807 317.193 C 112.711 317.193,112.281 315.997,112.281 310.175 C 112.281 302.854,114.931 300.756,119.018 304.842 M68.007 315.439 C 68.782 318.003,68.416 318.596,66.059 318.596 C 62.918 318.596,62.752 318.151,64.067 313.241 C 65.019 309.684,66.522 310.522,68.007 315.439 M231.480 316.842 C 231.535 317.807,230.316 318.596,228.772 318.596 C 225.495 318.596,225.490 318.579,227.523 313.425 C 229.100 309.426,231.164 311.209,231.480 316.842 M363.410 316.842 C 363.464 317.807,362.265 318.596,360.746 318.596 C 358.017 318.596,357.980 318.185,360.151 311.930 C 361.053 309.331,363.167 312.517,363.410 316.842 M128.639 346.426 C 125.499 349.895,125.638 358.249,128.882 361.186 C 132.816 364.745,143.158 364.371,143.158 360.669 C 143.158 358.013,142.946 357.969,139.864 359.988 C 133.659 364.054,125.538 353.620,130.807 348.351 C 133.285 345.873,139.063 346.302,141.204 349.123 C 142.899 351.356,143.073 351.228,143.113 347.719 C 143.170 342.842,132.726 341.909,128.639 346.426 M146.884 346.426 C 143.942 349.677,143.873 358.410,146.767 361.303 C 152.440 366.976,164.211 362.356,164.211 354.456 C 164.211 351.885,164.538 351.971,168.019 355.451 C 171.108 358.540,171.488 359.595,170.030 361.033 C 168.579 362.465,167.844 362.282,166.221 360.083 C 164.265 357.432,164.211 357.444,164.211 360.522 C 164.211 363.247,164.845 363.625,168.772 363.247 C 175.238 362.623,176.075 356.129,170.289 351.479 C 166.675 348.575,166.551 348.195,168.914 347.272 C 170.380 346.700,171.924 346.926,172.459 347.792 C 173.072 348.782,174.140 348.862,175.476 348.018 C 180.263 344.990,181.318 346.385,180.826 355.090 L 180.351 363.514 186.778 363.511 C 192.514 363.509,193.193 363.174,193.094 360.395 C 192.929 355.774,197.560 355.371,198.698 359.907 C 199.386 362.645,200.492 363.504,203.310 363.487 C 205.654 363.474,206.378 363.060,205.279 362.362 C 204.323 361.755,202.013 357.501,200.145 352.910 C 196.132 343.047,195.322 343.102,191.440 353.508 C 187.622 363.738,184.708 363.949,184.137 354.035 C 183.701 346.452,185.392 344.550,189.193 348.351 C 190.503 349.661,190.877 349.349,190.877 346.947 C 190.877 342.453,166.356 342.119,164.935 346.595 C 164.075 349.306,164.043 349.306,161.332 346.595 C 157.818 343.081,149.994 342.990,146.884 346.426 M211.579 345.455 C 213.817 347.717,213.868 359.606,211.649 361.825 C 210.339 363.135,211.041 363.484,214.807 363.398 C 217.470 363.337,218.860 362.969,217.895 362.579 C 215.913 361.780,215.468 356.491,217.382 356.491 C 218.066 356.491,219.659 358.070,220.924 360.000 C 222.839 362.924,224.329 363.509,229.857 363.509 L 236.491 363.509 236.491 353.684 C 236.491 344.796,236.224 343.859,233.684 343.857 C 231.117 343.854,230.917 344.632,231.348 352.980 C 231.881 363.309,229.848 364.998,224.723 358.483 C 222.370 355.492,222.167 354.389,223.558 352.162 C 226.260 347.835,223.255 344.639,215.997 344.122 C 211.033 343.768,210.168 344.029,211.579 345.455 M239.516 346.426 C 236.377 349.895,236.515 358.249,239.760 361.186 C 242.396 363.572,261.241 364.705,260.886 362.456 C 259.870 356.019,265.680 353.774,267.243 360.000 C 267.833 362.351,269.097 363.509,271.076 363.509 C 273.294 363.509,273.662 363.068,272.558 361.737 C 271.749 360.763,269.732 356.342,268.075 351.913 C 264.340 341.931,263.575 341.908,260.255 351.676 C 257.443 359.948,254.035 364.484,254.035 359.954 C 254.035 357.568,253.915 357.569,251.264 359.967 C 246.055 364.681,237.883 356.053,241.375 349.527 C 243.282 345.964,249.505 345.729,252.081 349.123 C 253.776 351.356,253.950 351.228,253.990 347.719 C 254.047 342.842,243.604 341.909,239.516 346.426 M158.316 348.351 C 161.106 351.142,160.393 358.989,157.193 360.702 C 151.250 363.882,145.255 356.046,148.702 349.604 C 150.434 346.369,155.653 345.688,158.316 348.351 M220.098 350.636 C 220.395 352.660,219.806 353.684,218.343 353.684 C 216.910 353.684,216.140 352.417,216.140 350.058 C 216.140 345.662,219.436 346.143,220.098 350.636 " stroke="none" fill="#000000" fill-rule="evenodd"></path></g></svg>